<!-- icon666.com - MILLIONS vector ICONS FREE --><svg viewBox="0 -7 466.46 466" xmlns="http://www.w3.org/2000/svg"><path d="m461.460938 406.351562h-15.472657v-250.011718c0-20.949219-17.046875-38-38-38h-38.71875v-18.011719h54.300781c2.757813 0 5-2.238281 5-5v-60.15625c0-.050781-.011718-.101563-.019531-.152344-.070312-18.429687-14.609375-33.507812-32.832031-34.441406-.558594-.21875-1.160156-.347656-1.796875-.347656h-274.402344c-19.097656 0-34.640625 15.539062-34.640625 34.640625v83.46875h-26.410156c-5.898438 0-11.480469 1.351562-16.457031 3.761718-4.980469 2.398438-9.363281 5.867188-12.851563 10.089844-.332031.398438-.648437.808594-.96875 1.21875-.050781.070313-.113281.140625-.160156.210938-4.75 6.339844-7.570312 14.207031-7.570312 22.730468v250h-15.460938c-2.761719 0-5 2.226563-5 5v20.46875c0 1.910157 1.089844 3.660157 2.820312 4.488282l33.769532 16.382812c.679687.328125 1.429687.5 2.179687.5h388.921875c.75 0 1.5-.171875 2.179688-.5l33.769531-16.382812c1.730469-.828125 2.820313-2.578125 2.820313-4.488282v-20.46875c0-2.773437-2.242188-5-5-5zm-67.539063-395.820312c13.578125 0 24.636719 11.046875 24.636719 24.640625 0 .039063.011718.078125.011718.117187v55.039063h-49.300781v-55.109375c0-.019531.011719-.027344.011719-.046875 0-13.59375 11.046875-24.640625 24.640625-24.640625zm-299.042969 24.339844c0-13.582032 11.050782-24.640625 24.640625-24.640625h250.402344c-6.542969 6.289062-10.621094 15.109375-10.640625 24.878906 0 .019531-.011719.039063-.011719.0625v321.929687l-264.390625-.011718zm-5 332.21875 274.390625.011718c1.332031 0 2.601563-.53125 3.539063-1.460937.941406-.941406 1.460937-2.210937 1.460937-3.539063v-207.761718h44.210938v231.539062h-360.5v-231.539062h31.898437v207.75c0 2.769531 2.242188 5 5 5zm-59.417968-210.730469c0-.007813.007812-.007813.007812-.019531 0-7.230469 2.761719-13.839844 7.28125-18.808594.03125-.03125.058594-.0625.078125-.089844.28125-.300781.5625-.601562.851563-.890625 5.070312-5.070312 12.070312-8.210937 19.789062-8.210937h26.410156v16h-36.898437c-2.761719 0-5 2.238281-5 5v241.539062c0 2.761719 2.238281 5 5 5h370.5c2.757812 0 5-2.238281 5-5v-241.539062c0-2.761719-2.242188-5-5-5h-49.210938v-16h38.71875c15.441407 0 28 12.558594 28 28v250.011718h-405.527343zm426 272.320313-29.921876 14.511718h-386.617187l-29.921875-14.511718v-12.328126h446.460938zm0 0" fill="#23130d"></path><path d="m10 416.351562v12.328126l29.921875 14.511718h386.617187l29.921876-14.511718v-12.328126zm278.5 18.417969h-110.539062c-2.761719 0-5-2.238281-5-5 0-2.757812 2.238281-5 5-5h110.539062c2.761719 0 5 2.242188 5 5 0 2.761719-2.238281 5-5 5zm0 0" fill="#636368"></path><path d="m418.570312 35.289062v55.039063h-49.300781v-55.109375c0-.019531.011719-.027344.011719-.046875 0-13.59375 11.046875-24.640625 24.640625-24.640625 13.578125 0 24.636719 11.046875 24.636719 24.640625 0 .039063.011718.078125.011718.117187zm0 0" fill="#cc7b5a"></path><path d="m435.988281 156.339844v250.011718h-405.527343v-249.992187c0-.007813.007812-.007813.007812-.019531 0-7.230469 2.761719-13.839844 7.28125-18.808594.03125-.03125.058594-.0625.078125-.089844.28125-.300781.5625-.601562.851563-.890625 5.070312-5.070312 12.070312-8.210937 19.789062-8.210937h26.410156v16h-36.898437c-2.761719 0-5 2.238281-5 5v241.539062c0 2.761719 2.238281 5 5 5h370.5c2.757812 0 5-2.238281 5-5v-241.539062c0-2.761719-2.242188-5-5-5h-49.210938v-16h38.71875c15.441407 0 28 12.558594 28 28zm0 0" fill="#e1e1e5"></path><path d="m413.480469 154.339844v231.539062h-360.5v-231.539062h31.898437v207.75c0 2.769531 2.242188 5 5 5h115.460938l32.640625.011718h126.289062c1.332031 0 2.601563-.53125 3.539063-1.460937.941406-.941406 1.460937-2.210937 1.460937-3.539063v-207.761718zm0 0" fill="#3594bf"></path><path d="m119.519531 10.230469c-13.589843 0-24.640625 11.058593-24.640625 24.640625v322.21875l264.390625.011718v-321.929687c0-.023437.011719-.042969.011719-.0625.019531-9.769531 4.097656-18.589844 10.640625-24.878906zm9.320313 158.78125h187.949218c2.761719 0 5 2.238281 5 5 0 2.757812-2.238281 5-5 5h-187.949218c-2.761719 0-5-2.242188-5-5 0-2.761719 2.238281-5 5-5zm-5-16.851563c0-2.761718 2.238281-5 5-5h187.949218c2.761719 0 5 2.238282 5 5 0 2.761719-2.238281 5-5 5h-187.949218c-2.761719 0-5-2.238281-5-5zm5 38.699219h187.949218c2.761719 0 5 2.242187 5 5 0 2.769531-2.238281 5-5 5h-187.949218c-2.761719 0-5-2.230469-5-5 0-2.757813 2.238281-5 5-5zm0 21.859375h187.949218c2.761719 0 5 2.242188 5 5 0 2.761719-2.238281 5-5 5h-187.949218c-2.761719 0-5-2.238281-5-5 0-2.757812 2.238281-5 5-5zm0 50.722656h41.199218c2.769532 0 5 2.230469 5 5 0 2.757813-2.230468 5-5 5h-41.199218c-2.761719 0-5-2.242187-5-5 0-2.769531 2.238281-5 5-5zm63.621094 58.929688h-63.621094c-2.761719 0-5-2.242188-5-5 0-2.761719 2.238281-5 5-5h63.621094c2.757812 0 5 2.238281 5 5 0 2.757812-2.242188 5-5 5zm0-24.460938h-63.621094c-2.761719 0-5-2.238281-5-5 0-2.769531 2.238281-5 5-5h63.621094c2.757812 0 5 2.230469 5 5 0 2.761719-2.242188 5-5 5zm131.980468 41.070313c0 2.757812-2.242187 5-5 5h-105c-1.390625 0-2.632812-.558594-3.542968-1.460938-.898438-.910156-1.457032-2.148437-1.457032-3.539062v-92.160157c0-2.761718 2.230469-5 5-5h105c2.757813 0 5 2.238282 5 5zm0-210.550781c0 2.761718-2.242187 5-5 5h-190.601562c-2.761719 0-5-2.238282-5-5v-91.558594c0-2.761719 2.238281-5 5-5h190.601562c2.757813 0 5 2.238281 5 5zm0 0" fill="#e59d89"></path><path d="m293.5 429.769531c0 2.761719-2.238281 5-5 5h-110.539062c-2.761719 0-5-2.238281-5-5 0-2.757812 2.238281-5 5-5h110.539062c2.761719 0 5 2.242188 5 5zm0 0" fill="#23130d"></path><path d="m319.441406 241.820312h-105c-2.769531 0-5 2.238282-5 5v92.160157c0 1.390625.558594 2.628906 1.457032 3.539062.910156.902344 2.152343 1.460938 3.542968 1.460938h105c2.757813 0 5-2.242188 5-5v-92.160157c0-2.761718-2.242187-5-5-5zm-100 92.160157v-35.371094l12.539063-21.71875 32.949219 57.089844zm57.039063 0-16.75-29.011719 7.210937-12.488281 23.957032 41.5zm37.960937 0h-11.992187l-31.179688-54c-.890625-1.550781-2.539062-2.5-4.328125-2.5-1.792968 0-3.441406.949219-4.332031 2.5l-8.648437 14.988281-17.652344-30.578125c-.898438-1.550781-2.546875-2.5-4.328125-2.5-1.789063 0-3.441407.949219-4.332031 2.5l-8.207032 14.21875v-26.789063h95zm0 0" fill="#23130d"></path><path d="m290.898438 333.980469h-14.417969l-16.75-29.011719 7.210937-12.488281zm0 0" fill="#cc7b5a"></path><path d="m264.929688 333.980469h-45.488282v-35.371094l12.539063-21.71875zm0 0" fill="#f8d3c9"></path><path d="m219.441406 251.820312v26.789063l8.207032-14.21875c.890624-1.550781 2.542968-2.5 4.332031-2.5 1.78125 0 3.429687.949219 4.328125 2.5l17.652344 30.578125 8.648437-14.988281c.890625-1.550781 2.539063-2.5 4.332031-2.5 1.789063 0 3.4375.949219 4.328125 2.5l31.179688 54h11.992187v-82.160157zm74.929688 34.929688c-8.359375 0-15.160156-6.800781-15.160156-15.160156 0-8.371094 6.800781-15.167969 15.160156-15.167969 8.367187 0 15.167968 6.796875 15.167968 15.167969 0 8.359375-6.800781 15.160156-15.167968 15.160156zm0 0" fill="#3594bf"></path><path d="m294.371094 256.421875c-8.359375 0-15.160156 6.796875-15.160156 15.167969 0 8.359375 6.800781 15.160156 15.160156 15.160156 8.367187 0 15.167968-6.800781 15.167968-15.160156 0-8.371094-6.800781-15.167969-15.167968-15.167969zm0 20.328125c-2.851563 0-5.160156-2.320312-5.160156-5.160156 0-2.851563 2.308593-5.167969 5.160156-5.167969 2.847656 0 5.167968 2.316406 5.167968 5.167969 0 2.839844-2.320312 5.160156-5.167968 5.160156zm0 0" fill="#23130d"></path><path d="m299.539062 271.589844c0 2.839844-2.320312 5.160156-5.167968 5.160156-2.851563 0-5.160156-2.320312-5.160156-5.160156 0-2.851563 2.308593-5.167969 5.160156-5.167969 2.847656 0 5.167968 2.316406 5.167968 5.167969zm0 0" fill="#f9c139"></path><g fill="#23130d"><path d="m321.789062 152.160156c0 2.761719-2.238281 5-5 5h-187.949218c-2.761719 0-5-2.238281-5-5 0-2.761718 2.238281-5 5-5h187.949218c2.761719 0 5 2.238282 5 5zm0 0"></path><path d="m321.789062 174.011719c0 2.757812-2.238281 5-5 5h-187.949218c-2.761719 0-5-2.242188-5-5 0-2.761719 2.238281-5 5-5h187.949218c2.761719 0 5 2.238281 5 5zm0 0"></path><path d="m321.789062 195.859375c0 2.769531-2.238281 5-5 5h-187.949218c-2.761719 0-5-2.230469-5-5 0-2.757813 2.238281-5 5-5h187.949218c2.761719 0 5 2.242187 5 5zm0 0"></path><path d="m321.789062 217.71875c0 2.761719-2.238281 5-5 5h-187.949218c-2.761719 0-5-2.238281-5-5 0-2.757812 2.238281-5 5-5h187.949218c2.761719 0 5 2.242188 5 5zm0 0"></path><path d="m175.039062 268.441406c0 2.757813-2.230468 5-5 5h-41.199218c-2.761719 0-5-2.242187-5-5 0-2.769531 2.238281-5 5-5h41.199218c2.769532 0 5 2.230469 5 5zm0 0"></path><path d="m197.460938 292.910156c0 2.761719-2.242188 5-5 5h-63.621094c-2.761719 0-5-2.238281-5-5 0-2.769531 2.238281-5 5-5h63.621094c2.757812 0 5 2.230469 5 5zm0 0"></path><path d="m197.460938 317.371094c0 2.757812-2.242188 5-5 5h-63.621094c-2.761719 0-5-2.242188-5-5 0-2.761719 2.238281-5 5-5h63.621094c2.757812 0 5 2.238281 5 5zm0 0"></path><path d="m319.441406 31.871094h-190.601562c-2.761719 0-5 2.238281-5 5v91.558594c0 2.761718 2.238281 5 5 5h190.601562c2.757813 0 5-2.238282 5-5v-91.558594c0-2.761719-2.242187-5-5-5zm-5 91.558594h-180.601562v-81.558594h180.601562zm0 0"></path></g><path d="m133.839844 41.871094v81.558594h180.601562v-81.558594zm36.121094 55.699218c1.949218 1.960938 1.949218 5.121094 0 7.078126-.980469.972656-2.261719 1.460937-3.539063 1.460937-1.273437 0-2.550781-.488281-3.53125-1.460937l-18.460937-18.457032c-1.949219-1.960937-1.949219-5.121094 0-7.082031l18.460937-18.449219c1.949219-1.960937 5.121094-1.960937 7.070313 0 1.949218 1.949219 1.949218 5.109375 0 7.070313l-14.921876 14.917969zm131.238281-11.378906-18.460938 18.457032c-.976562.972656-2.257812 1.460937-3.539062 1.460937-1.269531 0-2.550781-.488281-3.527344-1.460937-1.953125-1.957032-1.953125-5.117188 0-7.078126l14.917969-14.921874-14.917969-14.917969c-1.953125-1.960938-1.953125-5.121094 0-7.070313 1.949219-1.960937 5.117187-1.960937 7.066406 0l18.460938 18.449219c.941406.941406 1.460937 2.210937 1.460937 3.539063 0 1.332031-.519531 2.601562-1.460937 3.542968zm0 0" fill="#f9c139"></path><path d="m302.660156 82.648438c0 1.332031-.519531 2.601562-1.460937 3.542968l-18.460938 18.457032c-.976562.972656-2.257812 1.460937-3.539062 1.460937-1.269531 0-2.550781-.488281-3.527344-1.460937-1.953125-1.957032-1.953125-5.117188 0-7.078126l14.917969-14.921874-14.917969-14.917969c-1.953125-1.960938-1.953125-5.121094 0-7.070313 1.949219-1.960937 5.117187-1.960937 7.066406 0l18.460938 18.449219c.941406.941406 1.460937 2.210937 1.460937 3.539063zm0 0" fill="#fff"></path><path d="m169.960938 97.570312c1.949218 1.960938 1.949218 5.121094 0 7.078126-.980469.972656-2.261719 1.460937-3.539063 1.460937-1.273437 0-2.550781-.488281-3.53125-1.460937l-18.460937-18.457032c-1.949219-1.960937-1.949219-5.121094 0-7.082031l18.460937-18.449219c1.949219-1.960937 5.121094-1.960937 7.070313 0 1.949218 1.949219 1.949218 5.109375 0 7.070313l-14.921876 14.917969zm0 0" fill="#fff"></path></svg>